<svg xmlns="http://www.w3.org/2000/svg" width="1000" height="1000" viewBox="0 0 1000 1000">
<defs><clipPath id="c"><circle cx="500" cy="500" r="452"/></clipPath></defs>
<circle cx="500" cy="500" r="470" fill="#fbe3c0"/><circle cx="500" cy="500" r="455" fill="#5a1a0c"/>
<g clip-path="url(#c)"><g transform="translate(0,-40)"><line x1="500" y1="700" x2="158.4" y2="748.0" stroke="#fbe3c0" stroke-width="2.5" opacity=".45"/><g transform="translate(158.4,748.0) rotate(82)"><g transform="scale(0.95)"><path d="M0,0 C-48,0 -60,-45 -50,-85 C-40,-125 -10,-160 8,-205 C14,-222 34,-218 30,-198 C24,-165 44,-130 48,-85 C54,-35 40,0 0,0 Z" fill="#fbe3c0" stroke="#5a1a0c" stroke-width="7"/><ellipse cx="0" cy="-45" rx="27" ry="34" fill="#e8741c"/><ellipse cx="0" cy="-45" rx="13" ry="17" fill="#5a1a0c"/><circle cx="3" cy="-48" r="5" fill="#fbe3c0"/></g></g><line x1="500" y1="700" x2="156.9" y2="663.9" stroke="#fbe3c0" stroke-width="2.5" opacity=".45"/><g transform="translate(156.9,663.9) rotate(96)"><g transform="scale(0.95)"><path d="M0,0 C-48,0 -60,-45 -50,-85 C-40,-125 -10,-160 8,-205 C14,-222 34,-218 30,-198 C24,-165 44,-130 48,-85 C54,-35 40,0 0,0 Z" fill="#fbe3c0" stroke="#5a1a0c" stroke-width="7"/><ellipse cx="0" cy="-45" rx="27" ry="34" fill="#e8741c"/><ellipse cx="0" cy="-45" rx="13" ry="17" fill="#5a1a0c"/><circle cx="3" cy="-48" r="5" fill="#fbe3c0"/></g></g><line x1="500" y1="700" x2="175.8" y2="582.0" stroke="#fbe3c0" stroke-width="2.5" opacity=".45"/><g transform="translate(175.8,582.0) rotate(110)"><g transform="scale(0.95)"><path d="M0,0 C-48,0 -60,-45 -50,-85 C-40,-125 -10,-160 8,-205 C14,-222 34,-218 30,-198 C24,-165 44,-130 48,-85 C54,-35 40,0 0,0 Z" fill="#fbe3c0" stroke="#5a1a0c" stroke-width="7"/><ellipse cx="0" cy="-45" rx="27" ry="34" fill="#e8741c"/><ellipse cx="0" cy="-45" rx="13" ry="17" fill="#5a1a0c"/><circle cx="3" cy="-48" r="5" fill="#fbe3c0"/></g></g><line x1="500" y1="700" x2="214.0" y2="507.1" stroke="#fbe3c0" stroke-width="2.5" opacity=".45"/><g transform="translate(214.0,507.1) rotate(124)"><g transform="scale(0.95)"><path d="M0,0 C-48,0 -60,-45 -50,-85 C-40,-125 -10,-160 8,-205 C14,-222 34,-218 30,-198 C24,-165 44,-130 48,-85 C54,-35 40,0 0,0 Z" fill="#fbe3c0" stroke="#5a1a0c" stroke-width="7"/><ellipse cx="0" cy="-45" rx="27" ry="34" fill="#e8741c"/><ellipse cx="0" cy="-45" rx="13" ry="17" fill="#5a1a0c"/><circle cx="3" cy="-48" r="5" fill="#fbe3c0"/></g></g><line x1="500" y1="700" x2="269.1" y2="443.6" stroke="#fbe3c0" stroke-width="2.5" opacity=".45"/><g transform="translate(269.1,443.6) rotate(138)"><g transform="scale(0.95)"><path d="M0,0 C-48,0 -60,-45 -50,-85 C-40,-125 -10,-160 8,-205 C14,-222 34,-218 30,-198 C24,-165 44,-130 48,-85 C54,-35 40,0 0,0 Z" fill="#fbe3c0" stroke="#5a1a0c" stroke-width="7"/><ellipse cx="0" cy="-45" rx="27" ry="34" fill="#e8741c"/><ellipse cx="0" cy="-45" rx="13" ry="17" fill="#5a1a0c"/><circle cx="3" cy="-48" r="5" fill="#fbe3c0"/></g></g><line x1="500" y1="700" x2="338.0" y2="395.4" stroke="#fbe3c0" stroke-width="2.5" opacity=".45"/><g transform="translate(338.0,395.4) rotate(152)"><g transform="scale(0.95)"><path d="M0,0 C-48,0 -60,-45 -50,-85 C-40,-125 -10,-160 8,-205 C14,-222 34,-218 30,-198 C24,-165 44,-130 48,-85 C54,-35 40,0 0,0 Z" fill="#fbe3c0" stroke="#5a1a0c" stroke-width="7"/><ellipse cx="0" cy="-45" rx="27" ry="34" fill="#e8741c"/><ellipse cx="0" cy="-45" rx="13" ry="17" fill="#5a1a0c"/><circle cx="3" cy="-48" r="5" fill="#fbe3c0"/></g></g><line x1="500" y1="700" x2="416.5" y2="365.2" stroke="#fbe3c0" stroke-width="2.5" opacity=".45"/><g transform="translate(416.5,365.2) rotate(166)"><g transform="scale(0.95)"><path d="M0,0 C-48,0 -60,-45 -50,-85 C-40,-125 -10,-160 8,-205 C14,-222 34,-218 30,-198 C24,-165 44,-130 48,-85 C54,-35 40,0 0,0 Z" fill="#fbe3c0" stroke="#5a1a0c" stroke-width="7"/><ellipse cx="0" cy="-45" rx="27" ry="34" fill="#e8741c"/><ellipse cx="0" cy="-45" rx="13" ry="17" fill="#5a1a0c"/><circle cx="3" cy="-48" r="5" fill="#fbe3c0"/></g></g><line x1="500" y1="700" x2="500.0" y2="355.0" stroke="#fbe3c0" stroke-width="2.5" opacity=".45"/><g transform="translate(500.0,355.0) rotate(180)"><g transform="scale(0.95)"><path d="M0,0 C-48,0 -60,-45 -50,-85 C-40,-125 -10,-160 8,-205 C14,-222 34,-218 30,-198 C24,-165 44,-130 48,-85 C54,-35 40,0 0,0 Z" fill="#fbe3c0" stroke="#5a1a0c" stroke-width="7"/><ellipse cx="0" cy="-45" rx="27" ry="34" fill="#e8741c"/><ellipse cx="0" cy="-45" rx="13" ry="17" fill="#5a1a0c"/><circle cx="3" cy="-48" r="5" fill="#fbe3c0"/></g></g><line x1="500" y1="700" x2="583.5" y2="365.2" stroke="#fbe3c0" stroke-width="2.5" opacity=".45"/><g transform="translate(583.5,365.2) rotate(194)"><g transform="scale(0.95)"><path d="M0,0 C-48,0 -60,-45 -50,-85 C-40,-125 -10,-160 8,-205 C14,-222 34,-218 30,-198 C24,-165 44,-130 48,-85 C54,-35 40,0 0,0 Z" fill="#fbe3c0" stroke="#5a1a0c" stroke-width="7"/><ellipse cx="0" cy="-45" rx="27" ry="34" fill="#e8741c"/><ellipse cx="0" cy="-45" rx="13" ry="17" fill="#5a1a0c"/><circle cx="3" cy="-48" r="5" fill="#fbe3c0"/></g></g><line x1="500" y1="700" x2="662.0" y2="395.4" stroke="#fbe3c0" stroke-width="2.5" opacity=".45"/><g transform="translate(662.0,395.4) rotate(208)"><g transform="scale(0.95)"><path d="M0,0 C-48,0 -60,-45 -50,-85 C-40,-125 -10,-160 8,-205 C14,-222 34,-218 30,-198 C24,-165 44,-130 48,-85 C54,-35 40,0 0,0 Z" fill="#fbe3c0" stroke="#5a1a0c" stroke-width="7"/><ellipse cx="0" cy="-45" rx="27" ry="34" fill="#e8741c"/><ellipse cx="0" cy="-45" rx="13" ry="17" fill="#5a1a0c"/><circle cx="3" cy="-48" r="5" fill="#fbe3c0"/></g></g><line x1="500" y1="700" x2="730.9" y2="443.6" stroke="#fbe3c0" stroke-width="2.5" opacity=".45"/><g transform="translate(730.9,443.6) rotate(222)"><g transform="scale(0.95)"><path d="M0,0 C-48,0 -60,-45 -50,-85 C-40,-125 -10,-160 8,-205 C14,-222 34,-218 30,-198 C24,-165 44,-130 48,-85 C54,-35 40,0 0,0 Z" fill="#fbe3c0" stroke="#5a1a0c" stroke-width="7"/><ellipse cx="0" cy="-45" rx="27" ry="34" fill="#e8741c"/><ellipse cx="0" cy="-45" rx="13" ry="17" fill="#5a1a0c"/><circle cx="3" cy="-48" r="5" fill="#fbe3c0"/></g></g><line x1="500" y1="700" x2="786.0" y2="507.1" stroke="#fbe3c0" stroke-width="2.5" opacity=".45"/><g transform="translate(786.0,507.1) rotate(236)"><g transform="scale(0.95)"><path d="M0,0 C-48,0 -60,-45 -50,-85 C-40,-125 -10,-160 8,-205 C14,-222 34,-218 30,-198 C24,-165 44,-130 48,-85 C54,-35 40,0 0,0 Z" fill="#fbe3c0" stroke="#5a1a0c" stroke-width="7"/><ellipse cx="0" cy="-45" rx="27" ry="34" fill="#e8741c"/><ellipse cx="0" cy="-45" rx="13" ry="17" fill="#5a1a0c"/><circle cx="3" cy="-48" r="5" fill="#fbe3c0"/></g></g><line x1="500" y1="700" x2="824.2" y2="582.0" stroke="#fbe3c0" stroke-width="2.5" opacity=".45"/><g transform="translate(824.2,582.0) rotate(250)"><g transform="scale(0.95)"><path d="M0,0 C-48,0 -60,-45 -50,-85 C-40,-125 -10,-160 8,-205 C14,-222 34,-218 30,-198 C24,-165 44,-130 48,-85 C54,-35 40,0 0,0 Z" fill="#fbe3c0" stroke="#5a1a0c" stroke-width="7"/><ellipse cx="0" cy="-45" rx="27" ry="34" fill="#e8741c"/><ellipse cx="0" cy="-45" rx="13" ry="17" fill="#5a1a0c"/><circle cx="3" cy="-48" r="5" fill="#fbe3c0"/></g></g><line x1="500" y1="700" x2="843.1" y2="663.9" stroke="#fbe3c0" stroke-width="2.5" opacity=".45"/><g transform="translate(843.1,663.9) rotate(264)"><g transform="scale(0.95)"><path d="M0,0 C-48,0 -60,-45 -50,-85 C-40,-125 -10,-160 8,-205 C14,-222 34,-218 30,-198 C24,-165 44,-130 48,-85 C54,-35 40,0 0,0 Z" fill="#fbe3c0" stroke="#5a1a0c" stroke-width="7"/><ellipse cx="0" cy="-45" rx="27" ry="34" fill="#e8741c"/><ellipse cx="0" cy="-45" rx="13" ry="17" fill="#5a1a0c"/><circle cx="3" cy="-48" r="5" fill="#fbe3c0"/></g></g><line x1="500" y1="700" x2="841.6" y2="748.0" stroke="#fbe3c0" stroke-width="2.5" opacity=".45"/><g transform="translate(841.6,748.0) rotate(278)"><g transform="scale(0.95)"><path d="M0,0 C-48,0 -60,-45 -50,-85 C-40,-125 -10,-160 8,-205 C14,-222 34,-218 30,-198 C24,-165 44,-130 48,-85 C54,-35 40,0 0,0 Z" fill="#fbe3c0" stroke="#5a1a0c" stroke-width="7"/><ellipse cx="0" cy="-45" rx="27" ry="34" fill="#e8741c"/><ellipse cx="0" cy="-45" rx="13" ry="17" fill="#5a1a0c"/><circle cx="3" cy="-48" r="5" fill="#fbe3c0"/></g></g><g transform="translate(255.0,700.0) rotate(90)"><g transform="scale(0.72)"><path d="M0,0 C-48,0 -60,-45 -50,-85 C-40,-125 -10,-160 8,-205 C14,-222 34,-218 30,-198 C24,-165 44,-130 48,-85 C54,-35 40,0 0,0 Z" fill="#f4a53a" stroke="#5a1a0c" stroke-width="7"/><ellipse cx="0" cy="-45" rx="27" ry="34" fill="#e8741c"/><ellipse cx="0" cy="-45" rx="13" ry="17" fill="#5a1a0c"/><circle cx="3" cy="-48" r="5" fill="#fbe3c0"/></g></g><g transform="translate(264.5,632.5) rotate(106)"><g transform="scale(0.72)"><path d="M0,0 C-48,0 -60,-45 -50,-85 C-40,-125 -10,-160 8,-205 C14,-222 34,-218 30,-198 C24,-165 44,-130 48,-85 C54,-35 40,0 0,0 Z" fill="#f4a53a" stroke="#5a1a0c" stroke-width="7"/><ellipse cx="0" cy="-45" rx="27" ry="34" fill="#e8741c"/><ellipse cx="0" cy="-45" rx="13" ry="17" fill="#5a1a0c"/><circle cx="3" cy="-48" r="5" fill="#fbe3c0"/></g></g><g transform="translate(292.2,570.2) rotate(122)"><g transform="scale(0.72)"><path d="M0,0 C-48,0 -60,-45 -50,-85 C-40,-125 -10,-160 8,-205 C14,-222 34,-218 30,-198 C24,-165 44,-130 48,-85 C54,-35 40,0 0,0 Z" fill="#f4a53a" stroke="#5a1a0c" stroke-width="7"/><ellipse cx="0" cy="-45" rx="27" ry="34" fill="#e8741c"/><ellipse cx="0" cy="-45" rx="13" ry="17" fill="#5a1a0c"/><circle cx="3" cy="-48" r="5" fill="#fbe3c0"/></g></g><g transform="translate(336.1,517.9) rotate(138)"><g transform="scale(0.72)"><path d="M0,0 C-48,0 -60,-45 -50,-85 C-40,-125 -10,-160 8,-205 C14,-222 34,-218 30,-198 C24,-165 44,-130 48,-85 C54,-35 40,0 0,0 Z" fill="#f4a53a" stroke="#5a1a0c" stroke-width="7"/><ellipse cx="0" cy="-45" rx="27" ry="34" fill="#e8741c"/><ellipse cx="0" cy="-45" rx="13" ry="17" fill="#5a1a0c"/><circle cx="3" cy="-48" r="5" fill="#fbe3c0"/></g></g><g transform="translate(392.6,479.8) rotate(154)"><g transform="scale(0.72)"><path d="M0,0 C-48,0 -60,-45 -50,-85 C-40,-125 -10,-160 8,-205 C14,-222 34,-218 30,-198 C24,-165 44,-130 48,-85 C54,-35 40,0 0,0 Z" fill="#f4a53a" stroke="#5a1a0c" stroke-width="7"/><ellipse cx="0" cy="-45" rx="27" ry="34" fill="#e8741c"/><ellipse cx="0" cy="-45" rx="13" ry="17" fill="#5a1a0c"/><circle cx="3" cy="-48" r="5" fill="#fbe3c0"/></g></g><g transform="translate(457.5,458.7) rotate(170)"><g transform="scale(0.72)"><path d="M0,0 C-48,0 -60,-45 -50,-85 C-40,-125 -10,-160 8,-205 C14,-222 34,-218 30,-198 C24,-165 44,-130 48,-85 C54,-35 40,0 0,0 Z" fill="#f4a53a" stroke="#5a1a0c" stroke-width="7"/><ellipse cx="0" cy="-45" rx="27" ry="34" fill="#e8741c"/><ellipse cx="0" cy="-45" rx="13" ry="17" fill="#5a1a0c"/><circle cx="3" cy="-48" r="5" fill="#fbe3c0"/></g></g><g transform="translate(525.6,456.3) rotate(186)"><g transform="scale(0.72)"><path d="M0,0 C-48,0 -60,-45 -50,-85 C-40,-125 -10,-160 8,-205 C14,-222 34,-218 30,-198 C24,-165 44,-130 48,-85 C54,-35 40,0 0,0 Z" fill="#f4a53a" stroke="#5a1a0c" stroke-width="7"/><ellipse cx="0" cy="-45" rx="27" ry="34" fill="#e8741c"/><ellipse cx="0" cy="-45" rx="13" ry="17" fill="#5a1a0c"/><circle cx="3" cy="-48" r="5" fill="#fbe3c0"/></g></g><g transform="translate(591.8,472.8) rotate(202)"><g transform="scale(0.72)"><path d="M0,0 C-48,0 -60,-45 -50,-85 C-40,-125 -10,-160 8,-205 C14,-222 34,-218 30,-198 C24,-165 44,-130 48,-85 C54,-35 40,0 0,0 Z" fill="#f4a53a" stroke="#5a1a0c" stroke-width="7"/><ellipse cx="0" cy="-45" rx="27" ry="34" fill="#e8741c"/><ellipse cx="0" cy="-45" rx="13" ry="17" fill="#5a1a0c"/><circle cx="3" cy="-48" r="5" fill="#fbe3c0"/></g></g><g transform="translate(650.8,506.9) rotate(218)"><g transform="scale(0.72)"><path d="M0,0 C-48,0 -60,-45 -50,-85 C-40,-125 -10,-160 8,-205 C14,-222 34,-218 30,-198 C24,-165 44,-130 48,-85 C54,-35 40,0 0,0 Z" fill="#f4a53a" stroke="#5a1a0c" stroke-width="7"/><ellipse cx="0" cy="-45" rx="27" ry="34" fill="#e8741c"/><ellipse cx="0" cy="-45" rx="13" ry="17" fill="#5a1a0c"/><circle cx="3" cy="-48" r="5" fill="#fbe3c0"/></g></g><g transform="translate(698.2,556.0) rotate(234)"><g transform="scale(0.72)"><path d="M0,0 C-48,0 -60,-45 -50,-85 C-40,-125 -10,-160 8,-205 C14,-222 34,-218 30,-198 C24,-165 44,-130 48,-85 C54,-35 40,0 0,0 Z" fill="#f4a53a" stroke="#5a1a0c" stroke-width="7"/><ellipse cx="0" cy="-45" rx="27" ry="34" fill="#e8741c"/><ellipse cx="0" cy="-45" rx="13" ry="17" fill="#5a1a0c"/><circle cx="3" cy="-48" r="5" fill="#fbe3c0"/></g></g><g transform="translate(730.2,616.2) rotate(250)"><g transform="scale(0.72)"><path d="M0,0 C-48,0 -60,-45 -50,-85 C-40,-125 -10,-160 8,-205 C14,-222 34,-218 30,-198 C24,-165 44,-130 48,-85 C54,-35 40,0 0,0 Z" fill="#f4a53a" stroke="#5a1a0c" stroke-width="7"/><ellipse cx="0" cy="-45" rx="27" ry="34" fill="#e8741c"/><ellipse cx="0" cy="-45" rx="13" ry="17" fill="#5a1a0c"/><circle cx="3" cy="-48" r="5" fill="#fbe3c0"/></g></g><g transform="translate(744.4,682.9) rotate(266)"><g transform="scale(0.72)"><path d="M0,0 C-48,0 -60,-45 -50,-85 C-40,-125 -10,-160 8,-205 C14,-222 34,-218 30,-198 C24,-165 44,-130 48,-85 C54,-35 40,0 0,0 Z" fill="#f4a53a" stroke="#5a1a0c" stroke-width="7"/><ellipse cx="0" cy="-45" rx="27" ry="34" fill="#e8741c"/><ellipse cx="0" cy="-45" rx="13" ry="17" fill="#5a1a0c"/><circle cx="3" cy="-48" r="5" fill="#fbe3c0"/></g></g><g transform="translate(351.5,720.9) rotate(82)"><g transform="scale(0.5)"><path d="M0,0 C-48,0 -60,-45 -50,-85 C-40,-125 -10,-160 8,-205 C14,-222 34,-218 30,-198 C24,-165 44,-130 48,-85 C54,-35 40,0 0,0 Z" fill="#f4a53a" stroke="#5a1a0c" stroke-width="7"/><ellipse cx="0" cy="-45" rx="27" ry="34" fill="#e8741c"/><ellipse cx="0" cy="-45" rx="13" ry="17" fill="#5a1a0c"/><circle cx="3" cy="-48" r="5" fill="#fbe3c0"/></g></g><g transform="translate(353.3,668.8) rotate(102)"><g transform="scale(0.5)"><path d="M0,0 C-48,0 -60,-45 -50,-85 C-40,-125 -10,-160 8,-205 C14,-222 34,-218 30,-198 C24,-165 44,-130 48,-85 C54,-35 40,0 0,0 Z" fill="#f4a53a" stroke="#5a1a0c" stroke-width="7"/><ellipse cx="0" cy="-45" rx="27" ry="34" fill="#e8741c"/><ellipse cx="0" cy="-45" rx="13" ry="17" fill="#5a1a0c"/><circle cx="3" cy="-48" r="5" fill="#fbe3c0"/></g></g><g transform="translate(372.8,620.5) rotate(122)"><g transform="scale(0.5)"><path d="M0,0 C-48,0 -60,-45 -50,-85 C-40,-125 -10,-160 8,-205 C14,-222 34,-218 30,-198 C24,-165 44,-130 48,-85 C54,-35 40,0 0,0 Z" fill="#f4a53a" stroke="#5a1a0c" stroke-width="7"/><ellipse cx="0" cy="-45" rx="27" ry="34" fill="#e8741c"/><ellipse cx="0" cy="-45" rx="13" ry="17" fill="#5a1a0c"/><circle cx="3" cy="-48" r="5" fill="#fbe3c0"/></g></g><g transform="translate(407.7,581.8) rotate(142)"><g transform="scale(0.5)"><path d="M0,0 C-48,0 -60,-45 -50,-85 C-40,-125 -10,-160 8,-205 C14,-222 34,-218 30,-198 C24,-165 44,-130 48,-85 C54,-35 40,0 0,0 Z" fill="#f4a53a" stroke="#5a1a0c" stroke-width="7"/><ellipse cx="0" cy="-45" rx="27" ry="34" fill="#e8741c"/><ellipse cx="0" cy="-45" rx="13" ry="17" fill="#5a1a0c"/><circle cx="3" cy="-48" r="5" fill="#fbe3c0"/></g></g><g transform="translate(453.6,557.3) rotate(162)"><g transform="scale(0.5)"><path d="M0,0 C-48,0 -60,-45 -50,-85 C-40,-125 -10,-160 8,-205 C14,-222 34,-218 30,-198 C24,-165 44,-130 48,-85 C54,-35 40,0 0,0 Z" fill="#f4a53a" stroke="#5a1a0c" stroke-width="7"/><ellipse cx="0" cy="-45" rx="27" ry="34" fill="#e8741c"/><ellipse cx="0" cy="-45" rx="13" ry="17" fill="#5a1a0c"/><circle cx="3" cy="-48" r="5" fill="#fbe3c0"/></g></g><g transform="translate(505.2,550.1) rotate(182)"><g transform="scale(0.5)"><path d="M0,0 C-48,0 -60,-45 -50,-85 C-40,-125 -10,-160 8,-205 C14,-222 34,-218 30,-198 C24,-165 44,-130 48,-85 C54,-35 40,0 0,0 Z" fill="#f4a53a" stroke="#5a1a0c" stroke-width="7"/><ellipse cx="0" cy="-45" rx="27" ry="34" fill="#e8741c"/><ellipse cx="0" cy="-45" rx="13" ry="17" fill="#5a1a0c"/><circle cx="3" cy="-48" r="5" fill="#fbe3c0"/></g></g><g transform="translate(556.2,560.9) rotate(202)"><g transform="scale(0.5)"><path d="M0,0 C-48,0 -60,-45 -50,-85 C-40,-125 -10,-160 8,-205 C14,-222 34,-218 30,-198 C24,-165 44,-130 48,-85 C54,-35 40,0 0,0 Z" fill="#f4a53a" stroke="#5a1a0c" stroke-width="7"/><ellipse cx="0" cy="-45" rx="27" ry="34" fill="#e8741c"/><ellipse cx="0" cy="-45" rx="13" ry="17" fill="#5a1a0c"/><circle cx="3" cy="-48" r="5" fill="#fbe3c0"/></g></g><g transform="translate(600.4,588.5) rotate(222)"><g transform="scale(0.5)"><path d="M0,0 C-48,0 -60,-45 -50,-85 C-40,-125 -10,-160 8,-205 C14,-222 34,-218 30,-198 C24,-165 44,-130 48,-85 C54,-35 40,0 0,0 Z" fill="#f4a53a" stroke="#5a1a0c" stroke-width="7"/><ellipse cx="0" cy="-45" rx="27" ry="34" fill="#e8741c"/><ellipse cx="0" cy="-45" rx="13" ry="17" fill="#5a1a0c"/><circle cx="3" cy="-48" r="5" fill="#fbe3c0"/></g></g><g transform="translate(632.4,629.6) rotate(242)"><g transform="scale(0.5)"><path d="M0,0 C-48,0 -60,-45 -50,-85 C-40,-125 -10,-160 8,-205 C14,-222 34,-218 30,-198 C24,-165 44,-130 48,-85 C54,-35 40,0 0,0 Z" fill="#f4a53a" stroke="#5a1a0c" stroke-width="7"/><ellipse cx="0" cy="-45" rx="27" ry="34" fill="#e8741c"/><ellipse cx="0" cy="-45" rx="13" ry="17" fill="#5a1a0c"/><circle cx="3" cy="-48" r="5" fill="#fbe3c0"/></g></g><g transform="translate(648.5,679.1) rotate(262)"><g transform="scale(0.5)"><path d="M0,0 C-48,0 -60,-45 -50,-85 C-40,-125 -10,-160 8,-205 C14,-222 34,-218 30,-198 C24,-165 44,-130 48,-85 C54,-35 40,0 0,0 Z" fill="#f4a53a" stroke="#5a1a0c" stroke-width="7"/><ellipse cx="0" cy="-45" rx="27" ry="34" fill="#e8741c"/><ellipse cx="0" cy="-45" rx="13" ry="17" fill="#5a1a0c"/><circle cx="3" cy="-48" r="5" fill="#fbe3c0"/></g></g><path d="M500,760 C448,748 440,660 468,618 C484,594 488,560 487,520 C486,470 488,430 500,420 C512,430 514,470 513,520 C512,560 516,594 532,618 C560,660 552,748 500,760 Z" fill="#e8741c" stroke="#fbe3c0" stroke-width="7"/>
<ellipse cx="500" cy="402" rx="24" ry="30" fill="#e8741c" stroke="#fbe3c0" stroke-width="7"/>
<path d="M492,420 L500,446 L508,420 Z" fill="#f4a53a" stroke="#fbe3c0" stroke-width="3"/>
<circle cx="490" cy="398" r="5" fill="#5a1a0c"/><circle cx="510" cy="398" r="5" fill="#5a1a0c"/>
<path d="M500,372 L480,322 M500,372 L500,314 M500,372 L520,322" stroke="#fbe3c0" stroke-width="5" stroke-linecap="round"/>
<circle cx="480" cy="318" r="9" fill="#fbe3c0"/><circle cx="500" cy="308" r="9" fill="#fbe3c0"/><circle cx="520" cy="318" r="9" fill="#fbe3c0"/>
<circle cx="490" cy="665" r="5" fill="#f4a53a"/><circle cx="510" cy="665" r="5" fill="#f4a53a"/><circle cx="500" cy="690" r="5" fill="#f4a53a"/><circle cx="488" cy="715" r="5" fill="#f4a53a"/><circle cx="512" cy="715" r="5" fill="#f4a53a"/>
<path d="M485,758 L480,820 M515,758 L520,820" stroke="#fbe3c0" stroke-width="7" stroke-linecap="round"/></g></g></svg>